<svg xmlns="http://www.w3.org/2000/svg"  viewBox="0 0 40 40" width="40px" height="40px"><path fill="#f2faff" d="M0.5 5.5H39.5V34.5H0.5z"/><path fill="#a3b7cc" d="M39,6v28H1V6H39 M40,5H0v30h40V5L40,5z"/><path fill="#8bb7f0" d="M0.5 5.5H15.5V20.5H0.5z"/><path fill="#4e7ab5" d="M15,6v14H1V6H15 M16,5H0v16h16V5L16,5z"/><g><path fill="#f78f8f" d="M0.5 20.5H39.5V34.5H0.5z"/><path fill="#c74343" d="M39,21v13H1V21H39 M40,20H0v15h40V20L40,20z"/></g><g><path fill="#fff" d="M8 8L9.272 12.039 13.385 12.039 10.057 14.33 11.328 18.243 8 15.824 4.672 18.243 5.943 14.33 2.615 12.039 6.728 12.039z"/></g></svg>